<?xml version="1.0" encoding="utf-8"?>
<!-- Generator: Adobe Illustrator 24.2.1, SVG Export Plug-In . SVG Version: 6.00 Build 0)  -->
<svg version="1.1" id="logo" xmlns="http://www.w3.org/2000/svg" xmlns:xlink="http://www.w3.org/1999/xlink" x="0px" y="0px"
	 viewBox="0 0 214.8 248" style="enable-background:new 0 0 214.8 248;" xml:space="preserve">
<style type="text/css">
	.st0{fill:#10365E;}
	.st1{fill:#FF284B;}
	.st2{fill:#ABD7D8;}
</style>
<script  id="bw-fido2-page-script" xmlns=""></script>
<g>
	<g>
		<polygon class="st0" points="0,42.2 14.6,50.6 14.6,214.2 0,205.8 		"/>
		<polygon class="st0" points="29.2,59.1 43.9,67.5 43.9,231.1 29.3,222.7 		"/>
		<polygon class="st0" points="58.5,92.7 73.1,101.2 73.1,248 58.5,239.6 		"/>
		<polygon class="st0" points="29.2,25.3 43.9,33.8 43.9,50.6 29.2,42.3 		"/>
		<polygon class="st0" points="58.5,8.5 73.1,16.9 73.1,33.8 58.5,25.4 		"/>
	</g>
	<g>
		<polygon class="st1" points="73.1,248 73.1,231.1 214.8,149.3 214.8,166.2 		"/>
		<polygon class="st1" points="73.1,214.2 73.1,197.4 214.8,115.6 214.8,132.4 		"/>
		<polygon class="st1" points="87.6,172.1 87.6,155.2 214.8,81.8 214.8,98.7 		"/>
		<polygon class="st1" points="43.9,231.1 43.9,214.2 58.5,205.8 58.5,222.7 		"/>
		<polygon class="st1" points="14.6,214.2 14.6,197.4 29.2,188.9 29.3,205.8 		"/>
	</g>
	<g>
		<polygon class="st2" points="214.8,81.8 200.2,90.3 58.5,8.5 73.1,0 		"/>
		<polygon class="st2" points="185.6,98.7 170.9,107.1 29.2,25.3 43.8,16.9 		"/>
		<polygon class="st2" points="141.8,107.2 127.2,115.6 0,42.2 14.6,33.8 		"/>
		<polygon class="st2" points="214.8,115.6 200.2,124 185.6,115.6 200.1,107.1 		"/>
		<polygon class="st2" points="214.8,149.3 200.2,157.7 185.6,149.3 200.1,140.8 		"/>
	</g>
</g>
<script  xmlns=""></script>
</svg>
