<?xml version="1.0" encoding="UTF-8" standalone="no"?>
<!-- Created with Inkscape (http://www.inkscape.org/) -->

<svg
   width="59.159161mm"
   height="12.699973mm"
   viewBox="0 0 59.159161 12.699973"
   version="1.1"
   id="svg1"
   xml:space="preserve"
   inkscape:version="1.3 (0e150ed6c4, 2023-07-21)"
   sodipodi:docname="logo.svg"
   xmlns:inkscape="http://www.inkscape.org/namespaces/inkscape"
   xmlns:sodipodi="http://sodipodi.sourceforge.net/DTD/sodipodi-0.dtd"
   xmlns="http://www.w3.org/2000/svg"
   xmlns:svg="http://www.w3.org/2000/svg"><sodipodi:namedview
     id="namedview1"
     pagecolor="#505050"
     bordercolor="#eeeeee"
     borderopacity="1"
     inkscape:showpageshadow="0"
     inkscape:pageopacity="0"
     inkscape:pagecheckerboard="0"
     inkscape:deskcolor="#505050"
     inkscape:document-units="mm"
     showguides="true"
     inkscape:zoom="4.2083894"
     inkscape:cx="107.64213"
     inkscape:cy="7.0098075"
     inkscape:window-width="2560"
     inkscape:window-height="1377"
     inkscape:window-x="1912"
     inkscape:window-y="-8"
     inkscape:window-maximized="1"
     inkscape:current-layer="layer1"><sodipodi:guide
       position="-11.230606,290.61853"
       orientation="0,-1"
       id="guide2"
       inkscape:locked="false" /></sodipodi:namedview><defs
     id="defs1" /><g
     inkscape:label="Layer 1"
     inkscape:groupmode="layer"
     id="layer1"
     transform="translate(-67.81401,-142.8101)"><g
       style="fill:none"
       id="g1"
       transform="matrix(0.26458333,0,0,0.26458333,83.158964,144.26667)"><path
         d="m 61.7916,6.28839 h 7.4752 l 5.0481,18.47431 h 0.5242 L 79.9334,6.28839 h 7.5237 L 79.4092,31.3836 h -9.5235 z"
         fill="#000000"
         id="path1" /><path
         d="m 89.122,18.8578 c 0,-7.4752 5.5724,-13.19073 13.38,-13.19073 7.808,0 13.334,5.76173 13.334,13.19073 0,7.429 -5.524,13.1422 -13.334,13.1422 -7.81,0 -13.38,-5.7132 -13.38,-13.1422 z m 19.666,0 c 0,-3.7618 -2.57,-6.5723 -6.286,-6.5723 -3.7157,0 -6.332,2.8105 -6.332,6.5723 0,3.7618 2.6187,6.5238 6.332,6.5238 3.713,0 6.286,-2.8105 6.286,-6.5238 z"
         fill="#000000"
         id="path2" /><path
         d="M 123.073,23.6196 V 12.4287 H 118.93 V 6.28593 h 4.619 V 0 h 6.475 v 6.28593 h 6.667 v 6.14277 h -6.667 V 23.571 c 0,1.0946 0.43,1.5703 1.57,1.5703 h 4.811 v 6.2374 h -5.476 c -5.048,0 -7.856,-2.2863 -7.856,-7.7616 z"
         fill="#000000"
         id="path3" /><path
         d="m 140.264,18.8578 c 0,-7.8562 5.81,-13.19073 12.809,-13.19073 7.713,0 12.524,5.71313 12.524,13.14223 v 1.762 h -18.191 c 0.049,3.2861 2.476,5.286 5.762,5.286 2.286,0 4.476,-0.9053 5.429,-2.9998 l 6.192,1.4295 C 162.978,29.9055 158.122,32 153.265,32 145.598,32 140.266,26.4276 140.266,18.8578 Z m 18.333,-2.9051 c -0.332,-2.5241 -2.57,-4.5239 -5.524,-4.5239 -3.237,0 -5.286,2.2862 -5.618,4.5239 z"
         fill="#000000"
         id="path4" /><path
         d="M 0.403076,18.8263 H 6.6793 V 12.5501 H 0.403076 Z"
         fill="#000000"
         id="path5" /><path
         d="M 19.2318,18.8263 H 25.508 V 12.5501 H 19.2318 Z"
         fill="#000000"
         id="path6" /><path
         d="M 0.403076,25.1049 H 6.6793 V 18.8286 H 0.403076 Z"
         fill="#000000"
         id="path7" /><path
         d="M 6.67939,31.3812 H 12.9556 V 25.1049 H 6.6793 Z"
         fill="#000000"
         id="path8" /><path
         d="m 12.9556,31.3812 h 6.2762 v -6.2763 h -6.2762 z"
         fill="#000000"
         id="path9" /><path
         d="M 19.2318,25.1049 H 25.508 V 18.8286 H 19.2318 Z"
         fill="#000000"
         id="path10" /><path
         d="M 6.67939,12.5525 H 12.9556 V 6.27627 H 6.67939 Z"
         fill="#000000"
         id="path11" /><path
         d="m 12.9556,12.5525 h 6.2762 V 6.27627 h -6.2762 z"
         fill="#000000"
         id="path12" /><path
         d="m 31.7866,18.8263 h 6.2762 v -6.2762 h -6.2762 z"
         fill="#000000"
         id="path13" /><path
         d="m 31.7866,12.5501 h 6.2762 V 6.27378 h -6.2762 z"
         fill="#000000"
         id="path14" /><path
         d="m 50.6153,18.8263 h 6.2762 v -6.2762 h -6.2762 z"
         fill="#000000"
         id="path15" /><path
         d="m 31.7866,25.1049 h 6.2762 v -6.2763 h -6.2762 z"
         fill="#000000"
         id="path16" /><path
         d="m 31.7866,31.3812 h 6.2762 v -6.2763 h -6.2762 z"
         fill="#000000"
         id="path17" /><path
         d="m 50.6153,25.1049 h 6.2762 v -6.2763 h -6.2762 z"
         fill="#000000"
         id="path18" /><path
         d="m 50.6153,31.3812 h 6.2762 v -6.2763 h -6.2762 z"
         fill="#000000"
         id="path19" /><path
         d="M 38.0628,18.8263 H 44.339 V 12.5501 H 38.0628 Z"
         fill="#000000"
         id="path20" /><path
         d="m 44.3391,12.5525 h 6.2762 V 6.27627 h -6.2762 z"
         fill="#000000"
         id="path21" /><path
         d="m 50.6153,12.5525 h 6.2762 V 6.27627 h -6.2762 z"
         fill="#000000"
         id="path22" /></g><g
       style="fill:none"
       id="g2"
       transform="matrix(0.26458333,0,0,0.26458333,67.81401,142.8101)"><path
         d="M 6.00215,23.9988 H 0.00244141 c 0,13.2546 10.74425859,24.0011 23.99885859,24.0011 13.2546,0 23.9988,-10.7442 23.9988,-23.9988 h -5.9997"
         fill="#000000"
         id="path1-3" /><path
         d="m 41.998,23.9988 h 5.9997 C 47.9977,10.7443 37.2534,0 23.9988,0 10.7443,0 0,10.7443 0,23.9988 h 5.99971"
         fill="#ffffff"
         id="path2-7" /><path
         d="m 11.9995,23.9989 c 0,-6.6261 5.3733,-11.9994 11.9994,-11.9994 6.6262,0 11.9995,5.3733 11.9995,11.9994"
         fill="#000000"
         id="path3-0" /><path
         d="m 36.0005,30.0008 v -6.002 h -6.002 v 6.002 z"
         fill="#ffffff"
         id="path4-3" /><path
         d="m 30.001,36.0006 v -6.0021 h -6.0021 v 6.0021 z"
         fill="#ffffff"
         id="path5-4" /><path
         d="m 24.001,36.0006 v -6.0021 h -6.0021 v 6.0021 z"
         fill="#ffffff"
         id="path6-3" /><path
         d="m 18.0015,30.0008 v -6.002 h -6.0021 v 6.002 z"
         fill="#ffffff"
         id="path7-7" /><path
         d="m 18.0015,23.9987 c 0,-3.313 2.6866,-5.9997 5.9997,-5.9997 3.313,0 5.9997,2.6867 5.9997,5.9997"
         fill="#ffffff"
         id="path8-1" /></g></g></svg>
