<svg width="823" height="192" viewBox="0 0 823 192" fill="none" xmlns="http://www.w3.org/2000/svg">
<path d="M55.7763 41.2222V52.3333H11.3318V74.5556H44.6651V85.6667H11.3318V119H0.220703V41.2222H55.7763ZM78.031 107.889H66.9199V74.5556H78.031V107.889ZM111.364 85.6667H100.253V74.5556H111.364V63.4444H122.475V119H111.364V107.889H100.253V96.7778H111.364V85.6667ZM100.253 119H78.031V107.889H100.253V119ZM100.253 74.5556H78.031V63.4444H100.253V74.5556ZM166.952 85.6667H155.841V74.5556H166.952V85.6667ZM178.064 74.5556H166.952V63.4444H178.064V74.5556ZM144.73 96.7778V119H133.619V63.4444H144.73V85.6667H155.841V96.7778H144.73ZM200.297 107.889H189.186V74.5556H200.297V107.889ZM244.741 74.5556H200.297V63.4444H244.741V74.5556ZM244.741 119H200.297V107.889H244.741V119ZM266.996 107.889H255.885V74.5556H266.996V107.889ZM300.329 85.6667H289.218V74.5556H300.329V63.4444H311.44V119H300.329V107.889H289.218V96.7778H300.329V85.6667ZM289.218 119H266.996V107.889H289.218V119ZM289.218 74.5556H266.996V63.4444H289.218V74.5556ZM367.028 119H322.584V107.889H367.028V119ZM378.14 107.889H367.028V96.7778H378.14V107.889ZM367.028 96.7778H333.695V85.6667H367.028V96.7778ZM333.695 85.6667H322.584V74.5556H333.695V85.6667ZM378.14 74.5556H333.695V63.4444H378.14V74.5556ZM411.505 63.4444H422.617V74.5556H411.505V107.889H422.617V119H400.394V74.5556H389.283V63.4444H400.394V41.2222H411.505V63.4444ZM478.161 74.5556H444.828V63.4444H478.161V74.5556ZM444.828 96.7778V107.889H433.717V74.5556H444.828V85.6667H478.161V74.5556H489.272V96.7778H444.828ZM489.272 119H444.828V107.889H489.272V119ZM533.749 85.6667H522.638V74.5556H533.749V85.6667ZM544.86 74.5556H533.749V63.4444H544.86V74.5556ZM511.527 96.7778V119H500.416V63.4444H511.527V85.6667H522.638V96.7778H511.527ZM567.094 119H555.982V107.889H567.094V119ZM611.581 119H600.47V107.889H611.581V119ZM600.47 107.889H589.359V96.7778H600.47V107.889ZM622.692 107.889H611.581V96.7778H622.692V107.889ZM589.359 96.7778H578.248V63.4444H589.359V96.7778ZM633.804 96.7778H622.692V63.4444H633.804V96.7778ZM656.058 107.889H644.947V74.5556H656.058V107.889ZM689.392 74.5556H656.058V63.4444H689.392V74.5556ZM700.503 107.889H689.392V74.5556H700.503V107.889ZM689.392 119H656.058V107.889H689.392V119ZM733.869 63.4444H744.98V74.5556H733.869V107.889H744.98V119H722.758V74.5556H711.646V63.4444H722.758V41.2222H733.869V63.4444ZM800.525 74.5556H767.191V63.4444H800.525V74.5556ZM767.191 96.7778V107.889H756.08V74.5556H767.191V85.6667H800.525V74.5556H811.636V96.7778H767.191ZM811.636 119H767.191V107.889H811.636V119Z" fill="black"/>
<path d="M153.8 174V146H166.52C172.24 146 175.76 150.04 175.76 155.24C175.76 160.6 172.16 164.64 166.52 164.64H160.08V174H153.8ZM160.08 159.04H165.28C167.96 159.04 169.36 157.8 169.36 155.24C169.36 152.84 167.84 151.56 165.28 151.56H160.08V159.04ZM187.635 174.36C180.835 174.36 177.195 169.84 177.195 163.56C177.195 157.28 180.915 152.72 187.635 152.72C194.355 152.72 198.075 157.28 198.075 163.56C198.075 169.8 194.435 174.36 187.635 174.36ZM187.635 168.96C190.195 168.96 191.795 167.36 191.795 163.56C191.795 159.76 190.195 158.12 187.635 158.12C185.075 158.12 183.475 159.8 183.475 163.56C183.475 167.36 185.115 168.96 187.635 168.96ZM204.606 174L199.486 153.48V153.08H205.526L208.686 167.4H208.846L211.646 153.08H219.886L222.686 167.4H222.846L226.006 153.08H232.006V153.48L226.886 174H218.766L215.886 159.68H215.726L212.726 174H204.606ZM243.766 174.36C237.166 174.36 233.406 169.56 233.406 163.56C233.406 157.64 236.846 152.72 243.646 152.72C250.046 152.72 253.646 157.24 253.646 162.92V165.2H239.686C239.726 167.64 240.966 169.36 243.766 169.36C246.046 169.36 247.046 168.24 247.406 167.28H253.366C252.806 171.04 249.486 174.36 243.766 174.36ZM239.726 161.32H247.366C247.246 159.32 246.086 157.76 243.646 157.76C241.006 157.76 239.846 159.32 239.726 161.32ZM256.633 174V153.08H261.753L262.233 156.12H262.393C263.313 154.28 265.073 152.72 267.753 152.72H269.193V158.36H267.193C264.273 158.36 262.393 160.32 262.393 163.68V174H256.633ZM281.54 174.36C274.94 174.36 271.18 169.56 271.18 163.56C271.18 157.64 274.62 152.72 281.42 152.72C287.82 152.72 291.42 157.24 291.42 162.92V165.2H277.46C277.5 167.64 278.74 169.36 281.54 169.36C283.82 169.36 284.82 168.24 285.18 167.28H291.14C290.58 171.04 287.26 174.36 281.54 174.36ZM277.5 161.32H285.14C285.02 159.32 283.86 157.76 281.42 157.76C278.78 157.76 277.62 159.32 277.5 161.32ZM301.886 174.36C296.606 174.36 293.406 169.8 293.406 163.52C293.406 157.28 296.606 152.72 301.886 152.72C304.846 152.72 306.446 153.88 307.446 155.08H307.606V144.4H313.766V174H308.246L307.606 172H307.446C306.446 173.2 304.846 174.36 301.886 174.36ZM303.766 168.96C306.806 168.96 307.886 166.44 307.886 163.52C307.886 160.6 306.886 158.12 303.766 158.12C300.646 158.12 299.646 160.6 299.646 163.52C299.646 166.44 300.726 168.96 303.766 168.96ZM340.466 174.36C337.506 174.36 335.906 173.2 334.906 172H334.746L334.106 174H328.586V144.4H334.746V155.08H334.906C335.906 153.88 337.506 152.72 340.466 152.72C345.746 152.72 348.946 157.28 348.946 163.52C348.946 169.8 345.746 174.36 340.466 174.36ZM338.586 168.96C341.626 168.96 342.706 166.44 342.706 163.52C342.706 160.6 341.706 158.12 338.586 158.12C335.466 158.12 334.466 160.6 334.466 163.52C334.466 166.44 335.546 168.96 338.586 168.96ZM349.759 153.08H356.079L360.319 167.92H360.479L364.999 153.08H371.639V153.48L361.119 183.16H354.439V182.76L357.439 174H356.399L349.759 153.48V153.08Z" fill="black"/>
<mask id="mask0_2006_424" style="mask-type:luminance" maskUnits="userSpaceOnUse" x="397" y="136" width="223" height="48">
<path d="M620 136H397V183.942H620V136Z" fill="white"/>
</mask>
<g mask="url(#mask0_2006_424)">
<path d="M489.565 153.754L478.319 175.54L467.069 153.754H473.598L478.319 162.915L483.04 153.754H489.565Z" fill="black"/>
<path d="M490.341 164.257C490.341 161.135 491.412 158.513 493.512 156.412C495.657 154.312 498.316 153.241 501.444 153.241C504.573 153.241 507.242 154.312 509.332 156.412C511.476 158.513 512.547 161.128 512.547 164.257C512.547 167.379 511.475 170.001 509.374 172.102C507.274 174.202 504.618 175.223 501.444 175.223C498.271 175.223 495.613 174.193 493.512 172.102C491.412 170.01 490.341 167.388 490.341 164.257ZM496.556 164.257C496.556 165.8 497.029 167.087 497.93 168.072C498.384 168.546 498.93 168.924 499.534 169.182C500.138 169.44 500.788 169.573 501.444 169.573C502.101 169.573 502.751 169.44 503.355 169.182C503.959 168.924 504.505 168.546 504.959 168.072C505.851 167.087 506.33 165.8 506.33 164.257C506.33 162.714 505.86 161.429 504.959 160.442C504.504 159.968 503.959 159.591 503.355 159.333C502.751 159.076 502.101 158.943 501.444 158.943C500.788 158.943 500.138 159.076 499.534 159.333C498.93 159.591 498.385 159.968 497.93 160.442C497.029 161.429 496.556 162.714 496.556 164.257Z" fill="black"/>
<path d="M536.203 170.773C533.931 173.732 530.889 175.233 526.987 175.233C523.816 175.233 521.158 174.202 519.057 172.111C516.956 170.019 515.884 167.397 515.884 164.266C515.884 161.135 516.956 158.522 519.057 156.421C521.2 154.321 523.858 153.25 526.987 153.25C530.332 153.25 533.246 154.664 535.775 157.452L531.654 161.43C530.316 159.8 528.824 158.977 527.194 158.977C524.279 158.977 522.094 161.162 522.094 164.248C522.094 167.334 524.279 169.522 527.194 169.522C529.038 169.522 530.666 168.63 532.082 166.779L536.203 170.773Z" fill="black"/>
<path d="M541.491 156.328C543.498 154.269 546.035 153.241 548.992 153.241C551.18 153.241 552.98 153.841 554.393 155.083V144.71H560.481V174.76H554.48V173.259C553.109 174.597 551.265 175.233 548.992 175.233C546.035 175.233 543.504 174.247 541.491 172.231C539.477 170.215 538.489 167.548 538.489 164.257C538.489 160.999 539.475 158.343 541.491 156.328ZM554.48 164.257C554.48 162.672 554.008 161.343 553.064 160.315C552.638 159.814 552.105 159.416 551.503 159.149C550.903 158.882 550.25 158.753 549.592 158.772C548.93 158.757 548.272 158.888 547.663 159.154C547.057 159.421 546.515 159.817 546.078 160.315C545.186 161.343 544.706 162.672 544.706 164.257C544.706 165.843 545.177 167.174 546.078 168.202C546.517 168.699 547.057 169.095 547.665 169.362C548.272 169.628 548.93 169.759 549.592 169.745C550.25 169.763 550.903 169.634 551.503 169.367C552.103 169.1 552.638 168.702 553.064 168.202C554.008 167.174 554.48 165.845 554.48 164.257Z" fill="black"/>
<path d="M564.25 164.257C564.25 161.135 565.323 158.513 567.423 156.412C569.566 154.312 572.224 153.241 575.355 153.241C578.486 153.241 581.153 154.312 583.243 156.412C585.386 158.513 586.459 161.128 586.459 164.257C586.459 167.379 585.386 170.001 583.285 172.102C581.185 174.202 578.526 175.223 575.355 175.223C572.184 175.223 569.524 174.193 567.423 172.102C565.323 170.01 564.25 167.388 564.25 164.257ZM570.467 164.257C570.467 165.8 570.938 167.087 571.839 168.072C572.294 168.547 572.838 168.924 573.442 169.182C574.046 169.44 574.698 169.573 575.353 169.573C576.011 169.573 576.662 169.44 577.267 169.182C577.869 168.924 578.415 168.547 578.87 168.072C579.762 167.087 580.241 165.8 580.241 164.257C580.241 162.714 579.771 161.429 578.87 160.442C578.415 159.968 577.869 159.591 577.264 159.333C576.66 159.076 576.011 158.943 575.353 158.943C574.698 158.943 574.049 159.076 573.444 159.333C572.84 159.591 572.294 159.968 571.839 160.442C570.938 161.429 570.467 162.714 570.467 164.257Z" fill="black"/>
<path d="M589.857 153.754H600.135C602.604 153.755 604.97 154.736 606.716 156.481C608.46 158.227 609.441 160.594 609.441 163.062V174.76H603.304V163.093C603.288 162.107 602.887 161.166 602.184 160.472C601.484 159.778 600.539 159.385 599.553 159.378H595.938V174.764H589.857V153.754Z" fill="black"/>
<path d="M613.87 174.76V153.754H620V174.76H613.87Z" fill="black"/>
<path d="M620 144.712H613.881V150.831H620V144.712Z" fill="black"/>
<path d="M439.042 161.838L425.027 169.93L411.013 161.84L397 153.748V167.762L411.013 175.852L425.027 183.942L439.04 175.852L453.056 167.762V153.748L439.042 161.838Z" fill="black"/>
<path d="M431.378 136L417.364 144.09V158.105L431.378 150.013V136Z" fill="black"/>
</g>
</svg>
