<?xml version="1.0" encoding="UTF-8" standalone="no"?>
<svg
   width="466.20001"
   height="47.942001"
   viewBox="0 0 466.20001 47.942001"
   fill="none"
   version="1.1"
   id="svg13"
   sodipodi:docname="poweredby.svg"
   inkscape:version="1.3 (0e150ed6c4, 2023-07-21)"
   xmlns:inkscape="http://www.inkscape.org/namespaces/inkscape"
   xmlns:sodipodi="http://sodipodi.sourceforge.net/DTD/sodipodi-0.dtd"
   xmlns="http://www.w3.org/2000/svg"
   xmlns:svg="http://www.w3.org/2000/svg">
  <defs
     id="defs13" />
  <sodipodi:namedview
     id="namedview13"
     pagecolor="#505050"
     bordercolor="#eeeeee"
     borderopacity="1"
     inkscape:showpageshadow="0"
     inkscape:pageopacity="0"
     inkscape:pagecheckerboard="0"
     inkscape:deskcolor="#505050"
     inkscape:zoom="1.9137303"
     inkscape:cx="257.87333"
     inkscape:cy="-39.974286"
     inkscape:window-width="2560"
     inkscape:window-height="1377"
     inkscape:window-x="1912"
     inkscape:window-y="-8"
     inkscape:window-maximized="1"
     inkscape:current-layer="svg13" />
  <path
     d="M 0,38 V 10 h 12.72 c 5.72,0 9.24,4.04 9.24,9.24 0,5.36 -3.6,9.4 -9.24,9.4 H 6.28 V 38 Z M 6.28,23.04 h 5.2 c 2.68,0 4.08,-1.24 4.08,-3.8 0,-2.4 -1.52,-3.68 -4.08,-3.68 h -5.2 z m 27.555,15.32 c -6.8,0 -10.44,-4.52 -10.44,-10.8 0,-6.28 3.72,-10.84 10.44,-10.84 6.72,0 10.44,4.56 10.44,10.84 0,6.24 -3.64,10.8 -10.44,10.8 z m 0,-5.4 c 2.56,0 4.16,-1.6 4.16,-5.4 0,-3.8 -1.6,-5.44 -4.16,-5.44 -2.56,0 -4.16,1.68 -4.16,5.44 0,3.8 1.64,5.4 4.16,5.4 z M 50.806,38 45.686,17.48 v -0.4 h 6.04 l 3.16,14.32 h 0.16 l 2.8,-14.32 h 8.24 l 2.8,14.32 h 0.16 l 3.16,-14.32 h 6 v 0.4 L 73.086,38 h -8.12 l -2.88,-14.32 h -0.16 l -3,14.32 z m 39.16,0.36 c -6.6,0 -10.36,-4.8 -10.36,-10.8 0,-5.92 3.44,-10.84 10.24,-10.84 6.4,0 10,4.52 10,10.2 v 2.28 h -13.96 c 0.04,2.44 1.28,4.16 4.08,4.16 2.28,0 3.28,-1.12 3.64,-2.08 h 5.96 c -0.56,3.76 -3.88,7.08 -9.6,7.08 z m -4.04,-13.04 h 7.64 c -0.12,-2 -1.28,-3.56 -3.72,-3.56 -2.64,0 -3.8,1.56 -3.92,3.56 z M 102.833,38 V 17.08 h 5.12 l 0.48,3.04 h 0.16 c 0.92,-1.84 2.68,-3.4 5.36,-3.4 h 1.44 v 5.64 h -2 c -2.92,0 -4.8,1.96 -4.8,5.32 V 38 Z m 24.907,0.36 c -6.6,0 -10.36,-4.8 -10.36,-10.8 0,-5.92 3.44,-10.84 10.24,-10.84 6.4,0 10,4.52 10,10.2 v 2.28 h -13.96 c 0.04,2.44 1.28,4.16 4.08,4.16 2.28,0 3.28,-1.12 3.64,-2.08 h 5.96 c -0.56,3.76 -3.88,7.08 -9.6,7.08 z M 123.7,25.32 h 7.64 c -0.12,-2 -1.28,-3.56 -3.72,-3.56 -2.64,0 -3.8,1.56 -3.92,3.56 z m 24.386,13.04 c -5.28,0 -8.48,-4.56 -8.48,-10.84 0,-6.24 3.2,-10.8 8.48,-10.8 2.96,0 4.56,1.16 5.56,2.36 h 0.16 V 8.4 h 6.16 V 38 h -5.52 l -0.64,-2 h -0.16 c -1,1.2 -2.6,2.36 -5.56,2.36 z m 1.88,-5.4 c 3.04,0 4.12,-2.52 4.12,-5.44 0,-2.92 -1,-5.4 -4.12,-5.4 -3.12,0 -4.12,2.48 -4.12,5.4 0,2.92 1.08,5.44 4.12,5.44 z m 36.7,5.4 c -2.96,0 -4.56,-1.16 -5.56,-2.36 h -0.16 l -0.64,2 h -5.52 V 8.4 h 6.16 v 10.68 h 0.16 c 1,-1.2 2.6,-2.36 5.56,-2.36 5.28,0 8.48,4.56 8.48,10.8 0,6.28 -3.2,10.84 -8.48,10.84 z m -1.88,-5.4 c 3.04,0 4.12,-2.52 4.12,-5.44 0,-2.92 -1,-5.4 -4.12,-5.4 -3.12,0 -4.12,2.48 -4.12,5.4 0,2.92 1.08,5.44 4.12,5.44 z m 11.173,-15.88 h 6.32 l 4.24,14.84 h 0.16 l 4.52,-14.84 h 6.64 v 0.4 l -10.52,29.68 h -6.68 v -0.4 l 3,-8.76 h -1.04 l -6.64,-20.52 z"
     fill="#000000"
     id="path2" />
  <mask
     id="mask0_2006_424"
     maskUnits="userSpaceOnUse"
     x="397"
     y="136"
     width="223"
     height="48">
    <path
       d="M 620,136 H 397 v 47.942 h 223 z"
       fill="#ffffff"
       id="path3" />
  </mask>
  <g
     mask="url(#mask0_2006_424)"
     id="g13"
     transform="translate(-153.8,-136)">
    <path
       d="m 489.565,153.754 -11.246,21.786 -11.25,-21.786 h 6.529 l 4.721,9.161 4.721,-9.161 z"
       fill="#000000"
       id="path4" />
    <path
       d="m 490.341,164.257 c 0,-3.122 1.071,-5.744 3.171,-7.845 2.145,-2.1 4.804,-3.171 7.932,-3.171 3.129,0 5.798,1.071 7.888,3.171 2.144,2.101 3.215,4.716 3.215,7.845 0,3.122 -1.072,5.744 -3.173,7.845 -2.1,2.1 -4.756,3.121 -7.93,3.121 -3.173,0 -5.831,-1.03 -7.932,-3.121 -2.1,-2.092 -3.171,-4.714 -3.171,-7.845 z m 6.215,0 c 0,1.543 0.473,2.83 1.374,3.815 0.454,0.474 1,0.852 1.604,1.11 0.604,0.258 1.254,0.391 1.91,0.391 0.657,0 1.307,-0.133 1.911,-0.391 0.604,-0.258 1.15,-0.636 1.604,-1.11 0.892,-0.985 1.371,-2.272 1.371,-3.815 0,-1.543 -0.47,-2.828 -1.371,-3.815 -0.455,-0.474 -1,-0.851 -1.604,-1.109 -0.604,-0.257 -1.254,-0.39 -1.911,-0.39 -0.656,0 -1.306,0.133 -1.91,0.39 -0.604,0.258 -1.149,0.635 -1.604,1.109 -0.901,0.987 -1.374,2.272 -1.374,3.815 z"
       fill="#000000"
       id="path5" />
    <path
       d="m 536.203,170.773 c -2.272,2.959 -5.314,4.46 -9.216,4.46 -3.171,0 -5.829,-1.031 -7.93,-3.122 -2.101,-2.092 -3.173,-4.714 -3.173,-7.845 0,-3.131 1.072,-5.744 3.173,-7.845 2.143,-2.1 4.801,-3.171 7.93,-3.171 3.345,0 6.259,1.414 8.788,4.202 l -4.121,3.978 c -1.338,-1.63 -2.83,-2.453 -4.46,-2.453 -2.915,0 -5.1,2.185 -5.1,5.271 0,3.086 2.185,5.274 5.1,5.274 1.844,0 3.472,-0.892 4.888,-2.743 z"
       fill="#000000"
       id="path6" />
    <path
       d="m 541.491,156.328 c 2.007,-2.059 4.544,-3.087 7.501,-3.087 2.188,0 3.988,0.6 5.401,1.842 V 144.71 h 6.088 v 30.05 h -6.001 v -1.501 c -1.371,1.338 -3.215,1.974 -5.488,1.974 -2.957,0 -5.488,-0.986 -7.501,-3.002 -2.014,-2.016 -3.002,-4.683 -3.002,-7.974 0,-3.258 0.986,-5.914 3.002,-7.929 z m 12.989,7.929 c 0,-1.585 -0.472,-2.914 -1.416,-3.942 -0.426,-0.501 -0.959,-0.899 -1.561,-1.166 -0.6,-0.267 -1.253,-0.396 -1.911,-0.377 -0.662,-0.015 -1.32,0.116 -1.929,0.382 -0.606,0.267 -1.148,0.663 -1.585,1.161 -0.892,1.028 -1.372,2.357 -1.372,3.942 0,1.586 0.471,2.917 1.372,3.945 0.439,0.497 0.979,0.893 1.587,1.16 0.607,0.266 1.265,0.397 1.927,0.383 0.658,0.018 1.311,-0.111 1.911,-0.378 0.6,-0.267 1.135,-0.665 1.561,-1.165 0.944,-1.028 1.416,-2.357 1.416,-3.945 z"
       fill="#000000"
       id="path7" />
    <path
       d="m 564.25,164.257 c 0,-3.122 1.073,-5.744 3.173,-7.845 2.143,-2.1 4.801,-3.171 7.932,-3.171 3.131,0 5.798,1.071 7.888,3.171 2.143,2.101 3.216,4.716 3.216,7.845 0,3.122 -1.073,5.744 -3.174,7.845 -2.1,2.1 -4.759,3.121 -7.93,3.121 -3.171,0 -5.831,-1.03 -7.932,-3.121 -2.1,-2.092 -3.173,-4.714 -3.173,-7.845 z m 6.217,0 c 0,1.543 0.471,2.83 1.372,3.815 0.455,0.475 0.999,0.852 1.603,1.11 0.604,0.258 1.256,0.391 1.911,0.391 0.658,0 1.309,-0.133 1.914,-0.391 0.602,-0.258 1.148,-0.635 1.603,-1.11 0.892,-0.985 1.371,-2.272 1.371,-3.815 0,-1.543 -0.47,-2.828 -1.371,-3.815 -0.455,-0.474 -1.001,-0.851 -1.606,-1.109 -0.604,-0.257 -1.253,-0.39 -1.911,-0.39 -0.655,0 -1.304,0.133 -1.909,0.39 -0.604,0.258 -1.15,0.635 -1.605,1.109 -0.901,0.987 -1.372,2.272 -1.372,3.815 z"
       fill="#000000"
       id="path8" />
    <path
       d="m 589.857,153.754 h 10.278 c 2.469,0.001 4.835,0.982 6.581,2.727 1.744,1.746 2.725,4.113 2.725,6.581 v 11.698 h -6.137 v -11.667 c -0.016,-0.986 -0.417,-1.927 -1.12,-2.621 -0.7,-0.694 -1.645,-1.087 -2.631,-1.094 h -3.615 v 15.386 h -6.081 z"
       fill="#000000"
       id="path9" />
    <path
       d="M 613.87,174.76 V 153.754 H 620 v 21.006 z"
       fill="#000000"
       id="path10" />
    <path
       d="m 620,144.712 h -6.119 v 6.119 H 620 Z"
       fill="#000000"
       id="path11" />
    <path
       d="M 439.042,161.838 425.027,169.93 411.013,161.84 397,153.748 v 14.014 l 14.013,8.09 14.014,8.09 14.013,-8.09 14.016,-8.09 v -14.014 z"
       fill="#000000"
       id="path12" />
    <path
       d="m 431.378,136 -14.014,8.09 v 14.015 l 14.014,-8.092 z"
       fill="#000000"
       id="path13" />
  </g>
</svg>
