<?xml version="1.0" standalone="no"?>
<!DOCTYPE svg PUBLIC "-//W3C//DTD SVG 20010904//EN"
 "http://www.w3.org/TR/2001/REC-SVG-20010904/DTD/svg10.dtd">
<svg version="1.0" xmlns="http://www.w3.org/2000/svg"
 width="72.000000pt" height="72.000000pt" viewBox="0 0 72.000000 72.000000"
 preserveAspectRatio="xMidYMid meet">
<metadata>
Created by potrace 1.14, written by Peter Selinger 2001-2017
</metadata>
<g transform="translate(0.000000,72.000000) scale(0.100000,-0.100000)"
fill="#000000" stroke="none">
<path d="M198 682 c-7 -8 -13 -42 -13 -76 l0 -61 -52 -3 c-34 -2 -53 -8 -57
-18 -3 -8 -15 -77 -26 -155 -23 -158 -27 -318 -8 -337 17 -17 619 -17 636 0
19 19 15 188 -8 339 -11 74 -23 142 -26 151 -4 13 -19 18 -62 20 l-57 3 0 67
c0 37 -4 70 -9 75 -4 4 -75 9 -157 9 -122 1 -151 -1 -161 -14z"/>
</g>
</svg>
