<?xml version="1.0" standalone="no"?>
<!DOCTYPE svg PUBLIC "-//W3C//DTD SVG 20010904//EN"
 "http://www.w3.org/TR/2001/REC-SVG-20010904/DTD/svg10.dtd">
<svg version="1.0" xmlns="http://www.w3.org/2000/svg"
 width="518.000000pt" height="518.000000pt" viewBox="0 0 518.000000 518.000000"
 preserveAspectRatio="xMidYMid meet">
<metadata>
Created by potrace 1.14, written by Peter Selinger 2001-2017
</metadata>
<g transform="translate(0.000000,518.000000) scale(0.100000,-0.100000)"
fill="#000000" stroke="none">
<path d="M1375 5169 c-56 -3 -94 -12 -125 -28 -50 -26 -111 -81 -104 -93 3 -4
1 -8 -4 -8 -9 0 -28 -38 -41 -80 -3 -8 -6 -396 -8 -862 l-4 -848 28 0 c37 -1
2649 -1 2831 -1 l142 1 0 847 c-1 591 -4 851 -12 860 -6 7 -8 13 -4 13 14 0
-47 96 -82 130 -19 19 -32 28 -27 20 4 -8 -3 -5 -16 6 -53 47 -33 46 -1298 48
-658 0 -1232 -2 -1276 -5z m2338 -363 c52 -22 79 -59 85 -115 6 -62 -21 -111
-75 -136 -33 -16 -115 -17 -1137 -17 -952 0 -1107 2 -1137 15 -120 50 -106
219 21 260 8 3 509 6 1113 6 909 1 1103 -1 1130 -13z m-77 -516 c68 0 87 -4
115 -23 62 -42 80 -112 46 -178 -44 -85 52 -79 -1196 -79 -1092 0 -1105 0
-1147 20 -69 34 -94 110 -60 182 21 44 53 67 107 76 32 5 1056 6 2135 2z m76
-524 c41 -8 97 -63 100 -99 4 -71 -14 -117 -60 -152 -27 -20 -44 -20 -1127
-22 -605 -1 -1114 0 -1132 3 -38 6 -86 44 -105 82 -16 33 -9 99 16 137 41 63
-19 60 1182 59 599 0 1106 -4 1126 -8z"/>
<path d="M480 3527 c-19 -6 -41 -17 -48 -24 -7 -7 -20 -13 -28 -13 -8 0 -17
-7 -20 -15 -4 -8 -10 -12 -15 -9 -5 3 -12 -2 -15 -10 -3 -9 -13 -16 -22 -16
-8 0 -13 -2 -10 -5 2 -3 -17 -28 -43 -56 -27 -29 -46 -56 -43 -60 3 -5 0 -9
-6 -9 -6 0 -8 -4 -5 -10 3 -5 2 -10 -3 -10 -5 0 -13 -10 -17 -22 -11 -33 -12
-38 -15 -40 -2 -3 -7 -23 -15 -60 -3 -15 -9 -38 -13 -50 -8 -25 -8 -44 3 -128
4 -30 13 -58 19 -62 6 -4 7 -8 2 -8 -5 0 -4 -6 2 -12 11 -13 12 -18 12 -42 0
-8 6 -21 13 -28 7 -7 19 -28 26 -45 7 -18 17 -30 22 -27 5 3 9 -1 9 -8 0 -16
95 -105 121 -113 10 -4 19 -11 19 -16 0 -5 3 -8 8 -7 4 1 25 -6 47 -16 33 -15
78 -19 260 -23 288 -7 2978 -6 3525 0 403 5 429 7 483 27 31 12 57 26 57 31 0
5 6 9 13 9 16 0 117 93 117 108 0 7 5 12 10 12 6 0 10 7 10 15 0 8 4 15 9 15
10 0 27 39 23 53 -1 4 3 7 10 7 6 0 8 3 5 6 -3 4 -1 16 5 28 29 52 36 202 15
291 -17 68 -22 84 -44 117 -12 21 -23 42 -23 48 0 6 -4 9 -9 6 -5 -3 -14 8
-21 24 -7 17 -15 30 -19 30 -3 0 -21 14 -39 31 -17 16 -32 26 -32 22 0 -4 -5
0 -11 10 -6 9 -14 15 -18 13 -4 -3 -19 5 -32 17 -13 12 -25 21 -26 20 -2 -2
-4 -3 -5 -2 -61 18 -230 18 -236 1 -2 -7 -12 -12 -22 -12 -10 0 -37 -18 -59
-40 -36 -36 -46 -56 -42 -82 0 -5 -3 -8 -8 -8 -5 0 -7 -12 -5 -27 3 -16 7 -41
8 -57 1 -17 8 -32 14 -34 7 -2 10 -7 7 -12 -9 -14 45 -41 93 -46 95 -9 103
-11 114 -22 7 -7 17 -12 23 -12 14 0 54 -61 60 -90 3 -13 0 -29 -6 -37 -7 -7
-8 -13 -4 -13 4 0 2 -7 -5 -15 -7 -8 -10 -15 -7 -15 4 0 -4 -10 -16 -23 -12
-13 -25 -22 -28 -20 -4 1 -11 -3 -17 -10 -8 -10 -400 -12 -1929 -10 -1055 1
-1956 4 -2002 6 -55 3 -86 9 -92 18 -5 8 -9 10 -9 4 0 -5 -10 5 -21 23 -19 29
-24 63 -17 125 2 20 46 70 68 76 8 2 36 5 62 7 25 1 56 7 67 14 12 6 21 8 21
5 0 -14 58 54 68 80 25 64 15 154 -21 177 -7 4 -8 8 -4 8 4 0 2 6 -5 14 -7 8
-16 12 -20 9 -5 -2 -8 1 -8 7 0 6 -4 9 -9 6 -5 -4 -11 -1 -13 5 -5 14 -204 20
-248 6z"/>
<path d="M1112 2242 l-24 -4 5 -506 c5 -441 8 -538 17 -562 1 -3 2 -9 1 -13
-2 -12 39 -168 50 -192 5 -11 11 -29 13 -41 2 -11 16 -44 30 -74 14 -30 26
-59 26 -66 0 -6 7 -17 15 -24 8 -7 12 -16 9 -21 -3 -5 0 -9 5 -9 6 0 11 -6 11
-13 0 -7 8 -22 18 -33 10 -10 19 -23 20 -29 2 -5 11 -20 22 -32 10 -12 17 -23
14 -25 -2 -2 12 -21 31 -41 19 -20 32 -37 29 -37 -4 0 5 -11 20 -25 14 -13 26
-28 26 -34 0 -5 9 -13 21 -16 11 -4 18 -9 16 -12 -5 -4 49 -56 102 -99 13 -10
28 -23 35 -29 44 -39 120 -91 149 -101 9 -3 17 -10 17 -15 0 -5 3 -8 8 -7 4 1
23 -6 42 -17 19 -11 37 -20 40 -20 3 0 19 -8 35 -17 17 -9 39 -18 50 -20 11
-1 22 -6 25 -10 3 -4 15 -9 25 -11 11 -1 25 -5 30 -8 11 -7 59 -20 115 -33 14
-3 36 -7 50 -10 14 -3 45 -9 70 -12 25 -3 54 -8 65 -10 27 -6 450 -5 499 1 58
7 118 17 176 31 14 3 34 7 45 9 35 7 150 49 156 58 3 5 9 8 13 7 3 0 28 9 54
21 26 12 49 23 52 24 36 12 60 27 60 35 0 6 4 9 9 6 5 -3 14 1 21 9 7 8 16 15
21 15 5 0 28 15 52 32 24 18 53 39 63 46 10 7 13 10 5 6 -9 -5 -12 -3 -7 4 4
7 12 12 18 12 6 0 19 10 29 22 11 11 19 18 19 14 0 -3 22 18 49 48 27 30 52
52 55 49 3 -4 6 -1 6 6 0 6 12 23 26 36 15 14 24 25 20 25 -3 0 2 8 12 18 32
35 52 62 44 62 -4 0 -2 4 4 8 14 10 94 145 94 160 0 7 5 12 10 12 6 0 10 8 10
18 0 10 3 22 7 26 5 4 8 11 9 14 0 4 7 21 14 37 7 17 14 33 15 38 2 4 3 8 4
10 2 1 5 13 7 27 2 13 8 27 12 30 4 3 8 10 9 16 3 18 11 57 18 84 3 14 8 39
11 55 3 17 8 44 11 60 4 17 8 257 10 535 l4 505 -1478 0 c-813 0 -1488 -1
-1501 -3z m2324 -483 c36 -35 53 -82 46 -130 -4 -29 -68 -98 -471 -502 -256
-257 -477 -473 -491 -480 -23 -12 -42 -13 -107 -9 -19 2 -125 82 -108 82 4 0
-12 21 -34 46 -23 26 -41 51 -41 56 0 5 -4 6 -10 3 -5 -3 -10 -1 -10 5 0 6 -6
17 -12 24 -7 7 -29 33 -49 57 -20 24 -85 102 -144 174 -160 191 -163 196 -158
246 8 82 52 131 122 137 73 6 97 -10 201 -138 25 -30 47 -57 50 -60 3 -3 25
-30 50 -60 25 -30 53 -62 62 -71 10 -9 18 -20 18 -24 0 -4 15 -23 34 -41 19
-18 32 -35 30 -37 -2 -2 9 -15 24 -30 l27 -26 400 399 c220 220 411 404 425
409 44 17 112 3 146 -30z"/>
</g>
</svg>
