<?xml version="1.0" standalone="no"?>
<!DOCTYPE svg PUBLIC "-//W3C//DTD SVG 20010904//EN"
 "http://www.w3.org/TR/2001/REC-SVG-20010904/DTD/svg10.dtd">
<svg version="1.0" xmlns="http://www.w3.org/2000/svg"
 width="1024.000000pt" height="1024.000000pt" viewBox="0 0 1024.000000 1024.000000"
 preserveAspectRatio="xMidYMid meet">
<metadata>
Created by potrace 1.14, written by Peter Selinger 2001-2017
</metadata>
<g transform="translate(0.000000,1024.000000) scale(0.100000,-0.100000)"
fill="#000000" stroke="none">
<path d="M4780 10229 c-419 -28 -876 -117 -1273 -249 -1374 -458 -2488 -1473
-3076 -2803 -409 -924 -531 -1986 -345 -2995 361 -1955 1853 -3543 3781 -4026
1755 -439 3591 66 4867 1340 890 887 1417 2051 1496 3304 114 1818 -750 3564
-2265 4575 -764 509 -1612 796 -2530 855 -182 11 -471 11 -655 -1z"/>
</g>
</svg>
